HIERARCHY
ROOT Hips
{
	OFFSET 0.000000 0.000000 0.000000
	CHANNELS 6 Xposition Yposition Zposition Zrotation Yrotation Xrotation 
	JOINT LHipJoint
	{
		OFFSET 0.000000 0.000000 0.000000
		CHANNELS 3 Zrotation Yrotation Xrotation
		JOINT LeftUpLeg
		{
			OFFSET 1.363060 -1.794630 0.839290
			CHANNELS 3 Zrotation Yrotation Xrotation
			JOINT LeftLeg
			{
				OFFSET 2.448110 -6.726130 0.000000
				CHANNELS 3 Zrotation Yrotation Xrotation
				JOINT LeftFoot
				{
					OFFSET 2.562200 -7.039590 0.000000
					CHANNELS 3 Zrotation Yrotation Xrotation
					JOINT LeftToeBase
					{
						OFFSET 0.157640 -0.433110 2.322550
						CHANNELS 3 Zrotation Yrotation Xrotation
						End Site
						{
							OFFSET 0.000000 0.000000 0.000000
						}
					}
				}
			}
		}
	}
	JOINT RHipJoint
	{
		OFFSET 0.000000 0.000000 0.000000
		CHANNELS 3 Zrotation Yrotation Xrotation
		JOINT RightUpLeg
		{
			OFFSET -1.305520 -1.794630 0.839290
			CHANNELS 3 Zrotation Yrotation Xrotation
			JOINT RightLeg
			{
				OFFSET -2.542530 -6.985550 0.000000
				CHANNELS 3 Zrotation Yrotation Xrotation
				JOINT RightFoot
				{
					OFFSET -2.568260 -7.056230 0.000000
					CHANNELS 3 Zrotation Yrotation Xrotation
					JOINT RightToeBase
					{
						OFFSET -0.164730 -0.452590 2.363150
						CHANNELS 3 Zrotation Yrotation Xrotation
						End Site
						{
							OFFSET 0.000000 0.000000 0.000000
						}
					}
				}
			}
		}
	}
	JOINT LowerBack
	{
		OFFSET 0.000000 0.000000 0.000000
		CHANNELS 3 Zrotation Yrotation Xrotation
		JOINT Spine
		{
			OFFSET 0.028270 2.035590 -0.193380
			CHANNELS 3 Zrotation Yrotation Xrotation
			JOINT Spine1
			{
				OFFSET 0.056720 2.048850 -0.042750
				CHANNELS 3 Zrotation Yrotation Xrotation
				JOINT Neck
				{
					OFFSET 0.000000 0.000000 0.000000
					CHANNELS 3 Zrotation Yrotation Xrotation
					JOINT Neck1
					{
						OFFSET -0.054170 1.746240 0.172020
						CHANNELS 3 Zrotation Yrotation Xrotation
						JOINT Head
						{
							OFFSET 0.104070 1.761360 -0.123970
							CHANNELS 3 Zrotation Yrotation Xrotation
							End Site
							{
								OFFSET 0.000000 0.000000 0.000000
							}
						}
					}
				}
				JOINT LeftShoulder
				{
					OFFSET 0.000000 0.000000 0.000000
					CHANNELS 3 Zrotation Yrotation Xrotation
					JOINT LeftArm
					{
						OFFSET 3.362410 1.200890 -0.311210
						CHANNELS 3 Zrotation Yrotation Xrotation
						JOINT LeftForeArm
						{
							OFFSET 4.983000 -0.000000 -0.000000
							CHANNELS 3 Zrotation Yrotation Xrotation
							JOINT LeftHand
							{
								OFFSET 3.483560 -0.000000 -0.000000
								CHANNELS 3 Zrotation Yrotation Xrotation
								JOINT LeftFingerBase
								{
									OFFSET 0.000000 0.000000 0.000000
									CHANNELS 3 Zrotation Yrotation Xrotation
									JOINT LeftHandIndex1
									{
										OFFSET 0.715260 -0.000000 -0.000000
										CHANNELS 3 Zrotation Yrotation Xrotation
										End Site
										{
											OFFSET 0.000000 0.000000 0.000000
										}
									}
								}
								JOINT LThumb
								{
									OFFSET 0.000000 0.000000 0.000000
									CHANNELS 3 Zrotation Yrotation Xrotation
									End Site
									{
										OFFSET 0.000000 0.000000 0.000000
									}
								}
							}
						}
					}
				}
				JOINT RightShoulder
				{
					OFFSET 0.000000 0.000000 0.000000
					CHANNELS 3 Zrotation Yrotation Xrotation
					JOINT RightArm
					{
						OFFSET -3.136600 1.374050 -0.404650
						CHANNELS 3 Zrotation Yrotation Xrotation
						JOINT RightForeArm
						{
							OFFSET -5.241900 -0.000000 -0.000000
							CHANNELS 3 Zrotation Yrotation Xrotation
							JOINT RightHand
							{
								OFFSET -3.444170 -0.000000 -0.000000
								CHANNELS 3 Zrotation Yrotation Xrotation
								JOINT RightFingerBase
								{
									OFFSET 0.000000 0.000000 0.000000
									CHANNELS 3 Zrotation Yrotation Xrotation
									JOINT RightHandIndex1
									{
										OFFSET -0.622530 -0.000000 -0.000000
										CHANNELS 3 Zrotation Yrotation Xrotation
										End Site
										{
											OFFSET 0.000000 0.000000 0.000000
										}
									}
								}
								JOINT RThumb
								{
									OFFSET 0.000000 0.000000 0.000000
									CHANNELS 3 Zrotation Yrotation Xrotation
									End Site
									{
										OFFSET 0.000000 0.000000 0.000000
									}
								}
							}
						}
					}
				}
			}
		}
	}
}
MOTION
Frames: 4
Frame Time: 0.008333
0.838007 16.763962 0.504124 168.742925 -78.840558 -164.492353 -9.814938 0.222928 3.346520 -11.295677 -2.764083 -32.961650 -1.720215 0.312338 21.182396 1.254433 8.079805 -0.184242 1.348000 0.000000 -21.276700 10.289289 -4.733101 -1.089442 -0.720769 -9.039718 12.867384 0.624765 -2.657630 23.993544 0.141858 7.081641 17.325621 2.895300 0.000000 -93.346000 -5.914503 3.717486 -4.188564 -1.612381 4.008179 -4.130094 -3.473609 3.829272 -1.203268 2.871605 -2.484253 -7.465479 -0.861223 -0.078422 0.130011 0.000000 0.000000 0.000000 -6.191159 20.655077 1.699640 -47.393757 38.969521 24.848901 -5.485985 -18.124832 -0.083147 -12.787283 16.031913 -1.810984 -0.150558 -0.185728 -0.000000 0.000000 0.000000 0.000000 0.000000 0.000000 0.000000 -2.932045 5.112928 -1.134157 27.179460 43.953351 12.673010 0.119848 78.762232 -0.033747 -2.880218 5.422643 -0.145496 -0.080402 -0.503154 0.000000 0.000000 0.000000 0.000000 0.000000 0.000000 0.000000 
0.626025 16.717132 0.494847 166.494405 -79.294780 -162.482154 -9.763766 0.248513 3.201817 -11.998661 -2.877684 -33.193050 -1.635574 0.498179 23.660213 1.283068 8.192095 -0.469991 1.298400 -0.000000 -21.051800 10.555469 -4.738565 -1.195114 -1.667609 -9.674101 11.697128 0.362098 -2.870212 27.355030 -0.015347 7.658705 19.657150 3.506700 0.000000 -94.377800 -6.422599 3.560688 -3.931216 -1.726416 3.888107 -4.111776 -3.563426 3.712672 -1.283296 3.181324 -2.508553 -7.441670 -0.927812 -0.083626 0.131683 0.000000 0.000000 0.000000 -6.400954 19.956862 1.720521 -47.277629 38.419712 25.511746 -5.511204 -17.688007 -0.084030 -13.034912 16.041410 -1.846805 -0.154426 -0.181114 -0.000000 0.000000 0.000000 0.000000 0.000000 0.000000 0.000000 -2.378186 5.114265 -0.972653 27.751363 43.284233 12.797442 0.153593 78.955705 -0.032281 -2.739037 5.446228 -0.138850 -0.077953 -0.504384 0.000000 0.000000 0.000000 0.000000 0.000000 0.000000 0.000000 
0.418156 16.666706 0.486545 164.040598 -79.642716 -160.263678 -9.690898 0.272703 3.012743 -12.807145 -2.783705 -33.428297 -1.573757 0.668045 26.135141 1.308722 8.235658 -1.072967 1.189300 0.000000 -20.736900 10.858177 -4.714627 -1.286337 -2.704074 -10.315139 10.312055 0.107513 -3.055817 30.964254 -0.209161 8.148429 22.031765 4.129200 0.000001 -94.220400 -6.921469 3.397284 -3.639032 -1.838328 3.759940 -4.087902 -3.659410 3.589863 -1.365959 3.495338 -2.459137 -7.422596 -1.007611 -0.089689 0.130487 0.000000 0.000000 0.000000 -6.696685 19.310490 1.758526 -47.239656 37.636899 26.130535 -5.500818 -17.205210 -0.082549 -12.854966 15.863133 -1.799399 -0.157322 -0.175020 -0.000000 0.000000 0.000000 0.000000 0.000000 0.000000 0.000000 -1.789564 5.202671 -0.811036 28.478963 42.615162 12.983675 0.186514 79.093095 -0.030728 -2.578419 5.518928 -0.132197 -0.075674 -0.506198 0.000000 0.000000 0.000000 0.000000 0.000000 0.000000 0.000000 
0.215132 16.612670 0.479159 161.477780 -79.880852 -157.932862 -9.594392 0.299571 2.786798 -13.690520 -2.529922 -33.645280 -1.532259 0.824188 28.585777 1.335088 8.232295 -1.988558 1.025200 0.000001 -20.323700 11.186699 -4.653593 -1.370394 -3.788246 -10.929769 8.747285 -0.128323 -3.219491 34.786715 -0.436851 8.366758 24.319202 4.637600 0.000000 -92.780300 -7.402943 3.227798 -3.309065 -1.945504 3.623987 -4.055235 -3.758405 3.461435 -1.443968 3.806007 -2.348467 -7.414918 -1.099565 -0.096399 0.124322 0.000000 0.000000 0.000000 -7.049043 18.736294 1.822706 -47.325522 36.569989 26.603563 -5.460450 -16.634970 -0.078768 -12.239310 15.542414 -1.675764 -0.159076 -0.167012 -0.000000 0.000000 0.000000 0.000000 0.000000 0.000000 0.000000 -1.176366 5.365851 -0.655758 29.357174 41.969211 13.215855 0.217073 79.150160 -0.029234 -2.420225 5.634595 -0.126337 -0.073332 -0.508545 0.000000 0.000000 0.000000 0.000000 0.000000 0.000000 0.000000 
